<?xml version="1.0" standalone="no"?>
<!DOCTYPE svg PUBLIC "-//W3C//DTD SVG 20010904//EN"
 "http://www.w3.org/TR/2001/REC-SVG-20010904/DTD/svg10.dtd">
<svg version="1.0" xmlns="http://www.w3.org/2000/svg"
 width="1063.000000pt" height="1063.000000pt" viewBox="0 0 1063.000000 1063.000000"
 preserveAspectRatio="xMidYMid meet">
<metadata>
Created by potrace 1.14, written by Peter Selinger 2001-2017
</metadata>
<g transform="translate(0.000000,1063.000000) scale(0.100000,-0.100000)"
fill="#000000" stroke="none">
<path d="M5127 10324 c-1 -1 -56 -4 -122 -8 -66 -3 -131 -8 -145 -10 -14 -2
-57 -7 -96 -10 -39 -4 -80 -8 -90 -10 -11 -2 -41 -7 -69 -10 -92 -13 -120 -17
-200 -32 -44 -9 -89 -17 -100 -20 -11 -2 -29 -6 -40 -8 -11 -2 -38 -9 -60 -14
-22 -6 -51 -13 -65 -16 -59 -12 -83 -18 -234 -62 -382 -111 -729 -258 -1081
-459 -115 -65 -372 -232 -461 -299 -23 -17 -54 -40 -70 -51 -34 -25 -207 -165
-214 -174 -3 -3 -27 -24 -55 -46 -70 -55 -406 -390 -486 -483 -400 -471 -686
-941 -896 -1477 -32 -82 -88 -238 -99 -275 -2 -8 -24 -84 -48 -168 -25 -85
-47 -166 -50 -180 -2 -15 -14 -65 -25 -112 -11 -47 -28 -128 -36 -180 -9 -52
-18 -106 -21 -120 -2 -14 -7 -45 -10 -70 -3 -25 -8 -53 -9 -62 -2 -9 -7 -48
-10 -85 -4 -37 -8 -79 -11 -93 -22 -137 -22 -809 0 -950 3 -14 7 -54 10 -90 7
-73 8 -75 36 -255 88 -550 287 -1123 558 -1605 36 -63 70 -124 76 -135 41 -74
215 -332 311 -460 250 -333 611 -699 915 -928 30 -23 57 -44 60 -47 41 -41
502 -350 523 -350 2 0 50 -26 108 -58 409 -228 978 -435 1404 -511 57 -11 80
-15 135 -26 14 -2 43 -7 65 -10 23 -3 50 -7 60 -9 57 -11 137 -21 245 -31 198
-19 589 -24 825 -11 72 5 132 9 135 11 3 2 40 6 83 10 43 3 86 8 95 10 17 3
86 13 132 20 95 14 229 40 319 61 139 34 142 34 171 40 106 21 476 145 625
209 275 119 355 158 560 273 89 50 266 159 335 207 25 17 74 51 110 75 36 25
67 47 70 50 3 3 34 28 70 55 157 119 397 329 513 450 279 291 413 456 632 780
224 331 451 804 580 1205 20 63 38 122 40 130 2 8 18 67 35 130 17 63 34 126
36 140 3 14 10 45 15 70 6 25 13 56 15 70 2 14 9 45 14 70 5 25 12 61 15 80 3
19 7 46 10 60 2 14 7 45 10 70 3 25 8 56 10 70 2 14 7 53 10 87 3 34 8 71 10
84 23 119 23 769 1 954 -2 17 -7 59 -11 95 -4 36 -8 76 -10 90 -14 93 -17 118
-20 140 -11 77 -50 270 -81 395 -14 55 -27 110 -30 122 -16 78 -133 428 -179
538 -166 398 -305 660 -513 965 -218 319 -447 587 -729 850 -71 66 -79 73
-193 170 -36 30 -67 58 -70 61 -3 3 -61 49 -130 100 -323 244 -670 446 -1035
604 -60 26 -119 51 -130 56 -123 54 -557 193 -675 215 -13 3 -60 14 -105 24
-109 25 -423 77 -515 85 -41 4 -86 8 -99 10 -73 12 -643 28 -654 19z"/>
</g>
</svg>
